<?xml version="1.0" encoding="utf-8"?><!-- Uploaded to: SVG Repo, www.svgrepo.com, Generator: SVG Repo Mixer Tools -->
<svg width="800px" height="800px" viewBox="0 0 24 24" fill="none" xmlns="http://www.w3.org/2000/svg">
<path d="M13.25 4.79V4.5C13.2474 4.30189 13.1675 4.11263 13.0275 3.97253C12.8874 3.83244 12.6981 3.75259 12.5 3.75C10.9664 3.75888 9.46181 4.16837 8.13526 4.93789C6.80872 5.70741 5.7063 6.81024 4.93728 8.13708C4.16826 9.46391 3.75934 10.9687 3.75104 12.5022C3.74275 14.0358 4.13537 15.5449 4.88999 16.88C4.95648 16.9932 5.05151 17.0869 5.16557 17.1518C5.27964 17.2167 5.40874 17.2506 5.53999 17.25C5.66996 17.2497 5.79758 17.2152 5.90999 17.15L6.19999 17C6.95245 18.0543 7.95748 18.9029 9.12296 19.468C10.2884 20.0332 11.5771 20.2968 12.8709 20.2347C14.1647 20.1726 15.4222 19.7868 16.5282 19.1127C17.6343 18.4386 18.5534 17.4977 19.2015 16.3762C19.8496 15.2547 20.2058 13.9885 20.2376 12.6936C20.2694 11.3987 19.9758 10.1166 19.3835 8.96462C18.7913 7.81267 17.9194 6.82777 16.8478 6.10016C15.7762 5.37256 14.5392 4.92551 13.25 4.8V4.79ZM11.75 5.29V12.07L5.85999 15.45C5.40095 14.4024 5.19522 13.2613 5.25948 12.1194C5.32373 10.9774 5.65615 9.86662 6.2298 8.8771C6.80345 7.88758 7.60218 7.04715 8.56126 6.42392C9.52033 5.8007 10.6128 5.41223 11.75 5.29ZM12.5 18.75C11.5291 18.7473 10.5722 18.5192 9.70451 18.0836C8.83685 17.648 8.08219 17.0169 7.49999 16.24L12.87 13.15C12.9864 13.0864 13.0833 12.9923 13.1503 12.8778C13.2172 12.7632 13.2517 12.6326 13.25 12.5V6.3C14.8233 6.49998 16.2617 7.2906 17.2738 8.51165C18.2859 9.73269 18.796 11.2928 18.7006 12.8759C18.6052 14.459 17.9116 15.9467 16.7602 17.0374C15.6089 18.1281 14.0859 18.7403 12.5 18.75Z" fill="#000000"/>
</svg>